<svg width="1512" height="4725" viewBox="0 0 1512 4725" fill="none" xmlns="http://www.w3.org/2000/svg">
<path d="M1077.5 909L-1.50006 765V-2H1512V765L1077.5 909Z" fill="url(#paint0_linear_27_6)"/>
<path d="M434.5 1296L1513.5 1440V2207H6.10352e-05V1440L434.5 1296Z" fill="url(#paint1_linear_27_6)"/>
<path d="M-20.9999 1401L426.23 1251.59L1534 1401M-20.9999 1367.41L426.23 1218L1534 1367.41" stroke="#2A4BBE" stroke-width="4"/>
<path d="M1078.5 3341L-0.500122 3197L-0.500122 2430H1513V3197L1078.5 3341Z" fill="url(#paint2_linear_27_6)"/>
<path d="M1534 3236L1086.77 3385.41L-21 3236M1534 3269.59L1086.77 3419L-21 3269.59" stroke="#2A4BBE" stroke-width="4"/>
<path d="M435.5 3814L1514.5 3958V4725H1.00003V3958L435.5 3814Z" fill="url(#paint3_linear_27_6)"/>
<path d="M-20 3919L427.23 3769.59L1535 3919M-20 3885.41L427.23 3736L1535 3885.41" stroke="#2A4BBE" stroke-width="4"/>
<path d="M435.5 2223L3.00006 2074.5V2582L1096.5 2404L1511 2492V2092L435.5 2223Z" fill="black"/>
<defs>
<linearGradient id="paint0_linear_27_6" x1="755.25" y1="-2" x2="755.25" y2="909" gradientUnits="userSpaceOnUse">
<stop/>
<stop offset="1" stop-color="#1F3A99"/>
</linearGradient>
<linearGradient id="paint1_linear_27_6" x1="756.75" y1="2207" x2="756.75" y2="1296" gradientUnits="userSpaceOnUse">
<stop/>
<stop offset="0.035" stop-color="#010205"/>
<stop offset="1" stop-color="#1F3A99"/>
</linearGradient>
<linearGradient id="paint2_linear_27_6" x1="756.25" y1="2430" x2="756.25" y2="3341" gradientUnits="userSpaceOnUse">
<stop/>
<stop offset="0.035" stop-color="#010205"/>
<stop offset="1" stop-color="#1F3A99"/>
</linearGradient>
<linearGradient id="paint3_linear_27_6" x1="757.75" y1="4725" x2="757.75" y2="3814" gradientUnits="userSpaceOnUse">
<stop/>
<stop offset="0.035" stop-color="#010205"/>
<stop offset="1" stop-color="#1F3A99"/>
</linearGradient>
</defs>
</svg>
